<svg width="237" height="135" viewBox="0 0 237 135" fill="none" xmlns="http://www.w3.org/2000/svg">
<path d="M83.9214 130.049H93.5522V134.133H54.875V130.049H60.5379V104.371V100.403C65.7578 100.403 70.8428 100.075 75.793 99.4396C80.7433 98.8039 84.6919 97.9756 87.6582 96.9739L88.9487 100.923C83.1895 102.791 75.2922 103.909 65.2762 104.275V110.285H91.183V114.234H83.9214V130.049ZM79.3179 130.049V114.234H65.2762V130.049H79.3179V130.049Z" fill="black"/>
<path d="M121.906 93.4124C125.199 93.0078 127.742 91.7172 129.533 89.5212C131.325 87.3251 132.211 84.3971 132.211 80.737C132.211 77.443 131.151 74.6883 129.032 72.473C126.914 70.2577 124.198 69.0056 120.866 68.7551C120.211 74.2452 119.421 78.8877 118.516 82.6248C117.61 86.3812 116.609 89.2322 115.492 91.1778C114.374 93.1234 113.257 94.4911 112.121 95.2617C110.984 96.0322 109.732 96.4175 108.365 96.4175C106.15 96.4175 104.146 95.1268 102.297 92.5455C100.468 89.9642 99.543 86.8243 99.543 83.0872C99.543 77.6163 101.411 73.1665 105.129 69.7376C108.846 66.3087 113.719 64.5942 119.729 64.5942C124.564 64.5942 128.57 66.116 131.729 69.1404C134.888 72.184 136.467 76.0367 136.467 80.6985C136.467 85.5721 135.235 89.4826 132.75 92.4492C130.265 95.4158 126.933 97.0917 122.715 97.4577L121.906 93.4124ZM116.397 68.9478C112.564 69.5449 109.501 71.1246 107.248 73.6481C104.994 76.1908 103.858 79.3308 103.858 83.0872C103.858 85.5144 104.358 87.6333 105.379 89.4248C106.4 91.2163 107.382 92.1025 108.365 92.1025C108.827 92.1025 109.289 91.9098 109.79 91.5246C110.291 91.1393 110.83 90.4073 111.447 89.3285C112.063 88.2498 112.641 86.8821 113.199 85.2254C113.758 83.5687 114.317 81.3342 114.894 78.5217C115.472 75.7285 115.973 72.5308 116.397 68.9478Z" fill="black"/>
<path d="M176.685 121.034L181.193 121.381C181.135 123.307 181.077 124.733 181.039 125.677C181 126.621 180.904 127.661 180.73 128.817C180.576 129.953 180.461 130.743 180.364 131.186C180.287 131.61 180.018 132.111 179.613 132.67C179.189 133.228 178.862 133.556 178.573 133.671C178.303 133.787 177.783 133.922 177.013 134.095C176.242 134.268 175.549 134.345 174.952 134.345C174.355 134.345 173.411 134.345 172.159 134.345C170.907 134.345 169.886 134.326 169.116 134.288C168.345 134.249 167.633 134.153 167.016 134.037C166.381 133.902 165.918 133.748 165.591 133.556C165.283 133.363 165.013 133.074 164.82 132.67C164.628 132.265 164.493 131.841 164.435 131.398C164.377 130.955 164.358 130.358 164.358 129.607V116.392H158.734C158.541 121.169 157.385 124.983 155.267 127.796C153.167 130.628 149.739 133.016 144.981 135L142.573 131.34C146.58 129.684 149.45 127.757 151.145 125.561C152.859 123.365 153.822 120.322 154.092 116.392H143.401V112.52H159.504V96.9551H164.223V112.52H180.345V116.392H168.962V128.759C168.962 129.626 169.116 130.127 169.424 130.262C169.732 130.396 170.83 130.474 172.698 130.474C174.509 130.474 175.588 130.069 175.915 129.279C176.262 128.489 176.512 125.735 176.685 121.034ZM149.353 99.0741C151.395 102.175 153.36 105.585 155.286 109.303L151.376 111.287C149.604 107.8 147.639 104.391 145.482 101.097L149.353 99.0741ZM178.284 100.711C176.705 104.352 174.74 107.877 172.352 111.287L168.48 109.303C170.83 105.816 172.756 102.349 174.239 98.9007L178.284 100.711Z" fill="black"/>
<path d="M17.7773 89.9986C21.0325 90.4609 23.7484 91.4434 25.9249 92.9652C28.1015 94.487 29.6617 96.3748 30.6247 98.6286C31.5878 100.882 31.8768 103.31 31.5108 105.949C31.1448 108.588 30.1817 110.861 28.6215 112.749C27.0806 114.637 25.0389 116.024 22.5349 116.871C20.0309 117.738 17.1417 117.931 13.8865 117.468C10.6313 117.006 7.91537 116.024 5.73882 114.502C3.56226 112.98 2.00208 111.092 1.039 108.838C0.0759205 106.584 -0.213003 104.138 0.152967 101.499C0.518936 98.8598 1.48201 96.606 3.0422 94.6989C4.58312 92.8111 6.62485 91.4241 9.12885 90.5572C11.6329 89.6904 14.5028 89.5363 17.7773 89.9986ZM17.1224 94.564C14.6377 94.2173 12.4804 94.3136 10.6698 94.8722C8.85919 95.4309 7.41457 96.3363 6.33593 97.6077C5.25728 98.8598 4.60239 100.382 4.35199 102.115C4.10159 103.868 4.31346 105.506 5.00688 107.008C5.7003 108.511 6.83673 109.782 8.41617 110.822C10.0149 111.863 12.0373 112.556 14.5221 112.903C17.0068 113.25 19.1641 113.153 20.9747 112.595C22.7853 112.036 24.2299 111.131 25.3086 109.878C26.3872 108.626 27.0421 107.124 27.2925 105.352C27.5429 103.599 27.3118 101.98 26.6376 100.459C25.9442 98.9561 24.8078 97.6655 23.2283 96.6252C21.6489 95.585 19.6071 94.9108 17.1224 94.564Z" fill="black"/>
<path d="M34.3417 89.556L6.64355 76.0523L8.68528 71.8722L21.918 78.3254L22.0721 77.9787L14.5023 59.9096L17.0641 54.6506L24.0945 71.9107L44.8007 68.1158L42.3545 73.1436L25.6162 76.0716L27.7735 81.1764L36.3834 85.3759L34.3417 89.556Z" fill="black"/>
<path d="M48.288 64.2629L44.8787 67.8267L30.2207 38.527L33.9189 34.6357L63.8706 47.8697L60.4613 51.4335L36.1918 40.3377L36.0184 40.5111L48.288 64.2629ZM40.1211 55.3247L51.1773 43.7281L54.0087 46.425L42.9526 58.0216L40.1211 55.3247Z" fill="black"/>
<path d="M75.5045 6.97339L89.4113 34.4816L85.5975 36.408L61.4243 23.3088L61.1739 23.4436L71.3632 43.6125L67.2027 45.7122L53.2959 18.204L57.1289 16.2584L81.3407 29.3768L81.5911 29.2419L71.4018 9.05384L75.5045 6.97339Z" fill="black"/>
<path d="M118.996 14.3897C119.401 17.6645 119.131 20.5348 118.226 23.0197C117.321 25.5047 115.895 27.5081 113.969 29.0299C112.043 30.5518 109.77 31.4571 107.131 31.7846C104.473 32.1121 102.046 31.7654 99.8118 30.7637C97.5775 29.762 95.7284 28.1438 94.2453 25.9478C92.7621 23.7325 91.8183 21.0163 91.4331 17.7608C91.0286 14.486 91.2982 11.6158 92.2035 9.13079C93.1088 6.6458 94.5342 4.6424 96.4603 3.12059C98.3865 1.59877 100.679 0.69339 103.317 0.365911C105.937 0.0384323 108.383 0.385175 110.598 1.38687C112.813 2.38857 114.682 4.00671 116.165 6.20274C117.648 8.39877 118.592 11.1342 118.996 14.3897ZM114.412 14.9484C114.104 12.4634 113.449 10.4022 112.447 8.80331C111.446 7.18518 110.194 6.02937 108.691 5.31662C107.189 4.60387 105.571 4.35345 103.818 4.56535C102.046 4.77724 100.525 5.41294 99.2533 6.45316C97.982 7.49339 97.0382 8.93815 96.4411 10.7297C95.844 12.5212 95.7091 14.6787 95.9981 17.1636C96.3062 19.6486 96.9611 21.7098 97.9627 23.3087C98.9643 24.9268 100.216 26.0826 101.719 26.7954C103.221 27.5081 104.839 27.7586 106.592 27.5467C108.345 27.3348 109.866 26.6991 111.138 25.6588C112.428 24.6186 113.353 23.1739 113.95 21.3823C114.566 19.5908 114.72 17.4526 114.412 14.9484Z" fill="black"/>
<path d="M124.448 30.1088L131.016 0L135.562 1.0017L132.711 14.0816L147.716 17.3564L150.567 4.27649L155.132 5.27819L148.544 35.387L143.979 34.3853L146.849 21.2476L131.845 17.9728L128.975 31.1105L124.448 30.1088Z" fill="black"/>
<path d="M172.428 13.2533L158.714 40.8579L154.554 38.7967L168.268 11.1921L172.428 13.2533Z" fill="black"/>
<path d="M164.974 43.805L184.543 19.9954L188.145 22.9427L178.803 34.3081L179.092 34.5393L198.431 31.3801L202.957 35.0979L184.543 37.9296L183.407 58.9461L179.073 55.3823L180.113 38.4112L174.643 39.3359L168.556 46.7523L164.974 43.805Z" fill="black"/>
<path d="M186.682 63.6275L184.023 59.4666L215.959 52.1658L218.868 56.6927L198.913 82.6598L196.255 78.4989L212.781 57.5403L212.646 57.3284L186.682 63.6275ZM197.295 57.81L205.943 71.2944L202.649 73.4134L194.001 59.9289L197.295 57.81Z" fill="black"/>
<path d="M199.973 86.5509L229.828 78.9226L232.544 89.5753C233.141 91.8869 233.218 93.9096 232.814 95.6433C232.409 97.377 231.6 98.8025 230.387 99.9198C229.173 101.037 227.652 101.827 225.822 102.308C223.992 102.771 222.297 102.809 220.717 102.385C219.138 101.981 217.77 101.095 216.615 99.7657C215.459 98.4365 214.573 96.6065 213.995 94.2948L211.934 86.2235L215.806 85.241L217.77 92.8886C218.136 94.3526 218.656 95.4892 219.311 96.2982C219.966 97.1073 220.737 97.6274 221.642 97.8586C222.547 98.0897 223.568 98.0512 224.685 97.7623C225.822 97.4733 226.727 97.011 227.459 96.356C228.172 95.7203 228.634 94.8727 228.846 93.8518C229.058 92.8116 228.961 91.5594 228.595 90.0761L227.151 84.4127L201.148 91.0586L199.973 86.5509ZM217.212 97.8393L205.636 108.665L204.326 103.541L215.94 92.8693L217.212 97.8393Z" fill="black"/>
<path d="M236.069 117.257L205.27 118.104L205.135 113.462L235.934 112.614L236.069 117.257Z" fill="black"/>
</svg>
